<?xml version="1.0" encoding="UTF-8" standalone="no" ?>
<!DOCTYPE svg PUBLIC "-//W3C//DTD SVG 1.1//EN" "http://www.w3.org/Graphics/SVG/1.1/DTD/svg11.dtd">
<svg xmlns="http://www.w3.org/2000/svg" xmlns:xlink="http://www.w3.org/1999/xlink" version="1.1" width="500" height="500" viewBox="0 0 500 500" xml:space="preserve">
<desc>Created with Fabric.js 3.6.3</desc>
<defs>
</defs>
<g transform="matrix(1.37 0 0 1.37 143.59000000000003 250.89)"  >
<g style=""   >
		<g transform="matrix(1 0 0 1 7.550000000000011 -1.426127124296876)"  >
<linearGradient id="SVGID_4016_4021" gradientUnits="userSpaceOnUse" gradientTransform="matrix(1 0 0 1 29.30000000000001 16.247745751406264)"  x1="0" y1="0" x2="100" y2="100">
<stop offset="0%" style="stop-color:#8f5e25;"/>
<stop offset="50%" style="stop-color:#fbf4a1;"/>
<stop offset="100%" style="stop-color:#8f5e25;"/>
</linearGradient>
<path style="stroke: none; stroke-width: 1; stroke-dasharray: none; stroke-linecap: butt; stroke-dashoffset: 0; stroke-linejoin: miter; stroke-miterlimit: 4; fill: url(#SVGID_4016_4021); fill-rule: nonzero; opacity: 1;"  transform=" translate(-57.55000000000001, -48.573872875703124)" d="M 60.6 26.9 c -0.1 -0.8 -0.2 -3.5 1.6 -6.2 c 2 -3 5 -3.8 5.7 -4 c -2.5 -0.5 -4.6 -0.5 -5.8 -0.4 c -1.7 0.1 -2.7 0.5 -3.5 0.9 c -0.7 0.4 -1.2 0.7 -1.5 1 c -1 -0.6 -2.9 -1.4 -5.3 -1.3 c -1.4 0.1 -4 0.2 -5.5 2.2 c -1.1 1.4 -1 3.1 -0.9 3.8 c 0.1 -0.2 2.4 -2.9 5.9 -2.6 c 2.4 0.2 4.7 1.8 5.5 4.3 c 0.9 2.7 -0.5 5 -0.7 5.3 c 1 -0.3 2.4 -0.6 4.2 -0.5 c 1.9 0.1 3.3 0.5 4.3 0.9 c -2.5 1.9 -5 3.8 -7.4 5.6 c 1.8 0.5 3.8 1.1 5.9 1.9 c 2.4 0.9 4.4 1.9 6.2 2.9 c -1.8 -0.1 -3.8 -0.2 -5.9 -0.1 c -2.3 0 -4.5 0.2 -6.4 0.4 c 2.5 2.3 5.4 5.3 8.1 8.9 c 1.8 2.4 3.3 4.7 4.5 6.8 c -1.1 0 -3.4 -0.1 -5.8 -1.4 c -3.2 -1.8 -4.6 -4.6 -5 -5.5 c -2.2 4.2 -3.1 7.6 -3.4 10 c -0.2 1.6 -0.4 4.1 -1.6 7.4 c -0.5 1.5 -1.1 2.6 -1.5 3.4 c -1.6 -3.4 -1.7 -6.1 -1.6 -7.7 c 0.1 -2.4 1 -5.9 2.9 -8.8 c 0.5 -0.7 1.4 -1.9 2 -3.9 c 0.5 -1.3 0.6 -2.4 0.7 -3.2 c -1.1 1.3 -2.1 2.3 -2.9 3 c 0 0 -1.1 0.9 -3.5 2.1 c -0.2 0.1 -0.5 0.3 -0.7 0.1 c -0.3 -0.2 0 -1.1 0.2 -1.7 c 0.9 -2.2 1.8 -3.5 2.3 -4.6 c 0.5 -1 0.7 -2 1.2 -4 c 0.5 -2 0.9 -5.1 0.7 -9.1 c -2.2 6.3 -5.1 10.6 -7.4 13.4 c -5.3 6.5 -9.5 10.3 -9.5 10.3 c -1.2 1.1 -3.2 2.9 -5.1 5.9 c -1.2 1.9 -1.9 3.6 -2.3 4.8 c 1.9 -1.7 4.3 -3.6 7.3 -5.4 c 2.4 -1.5 4.7 -2.6 6.7 -3.5 c -1.2 5 -0.3 8.6 0.2 10.3 c 1.2 3.4 3.3 5.9 5.6 8.7 c 1.3 1.6 2.6 2.8 3.5 3.6 c 1.1 -1.2 2.7 -3 3.9 -5.7 c 1 -2.2 1.1 -3.7 1.9 -7.4 c 0.4 -1.9 1.1 -4.6 2 -8 c 1.2 0.3 2.9 0.8 5 1.7 c 3.3 1.3 5.2 2.1 6.8 3.8 c 0.8 0.8 2.9 3.2 3.1 8.1 c 1.5 -5.4 0.8 -9.3 0.2 -11.5 c -0.6 -2.2 -1.7 -4.1 -3.9 -7.8 c -2 -3.4 -3.8 -6.2 -5.2 -8.1 c 2.4 -0.1 5.6 0 9.2 0.8 c 4.5 1 7.9 2.8 10.2 4.2 c -1.4 -2.5 -4.2 -6.6 -9 -10.3 c -4.8 -3.6 -9.4 -5.1 -12.2 -5.8 c 1.2 -1.1 2.9 -2.5 5.3 -3.7 c 2.8 -1.4 5.4 -1.9 7.2 -2.1 c -2.2 -1 -5.4 -2.1 -9.4 -2.5 C 64.9 26.5 62.5 26.6 60.6 26.9 z" stroke-linecap="round" />
</g>
		<g transform="matrix(1 0 0 1 -0.36324676318529114 -23.704243343334596)"  >
<linearGradient id="SVGID_4017_4022" gradientUnits="userSpaceOnUse" gradientTransform="matrix(1 0 0 1 45.8 21.800000000000004)"  x1="0" y1="0" x2="100" y2="100">
<stop offset="0%" style="stop-color:#8f5e25;"/>
<stop offset="50%" style="stop-color:#fbf4a1;"/>
<stop offset="100%" style="stop-color:#8f5e25;"/>
</linearGradient>
<path style="stroke: none; stroke-width: 1; stroke-dasharray: none; stroke-linecap: butt; stroke-dashoffset: 0; stroke-linejoin: miter; stroke-miterlimit: 4; fill: url(#SVGID_4017_4022); fill-rule: nonzero; opacity: 1;"  transform=" translate(-49.63675323681471, -26.295756656665404)" d="M 48.1 30.1 c 1.6 1 3.6 0.9 4.6 -0.2 c 0.7 -0.8 0.9 -1.9 0.7 -2.8 c -0.4 -1.5 -2 -2.5 -2.4 -2.7 c -0.7 -0.4 -1.2 -0.5 -1.4 -0.9 c -0.2 -0.5 0.4 -1.2 0.9 -1.7 c -0.6 0.2 -2.3 0.7 -3.6 2.5 c -0.8 1.1 -1 2.2 -1.1 2.8 c 0.9 0.1 1.8 0.1 2.7 0.2 C 48.5 28.3 48.3 29.2 48.1 30.1 z" stroke-linecap="round" />
</g>
		<g transform="matrix(1 0 0 1 -21.65000000000001 -18.65)"  >
<linearGradient id="SVGID_4018_4023" gradientUnits="userSpaceOnUse" gradientTransform="matrix(1 0 0 1 19.89999999999999 25.200000000000003)"  x1="0" y1="0" x2="100" y2="100">
<stop offset="0%" style="stop-color:#8f5e25;"/>
<stop offset="50%" style="stop-color:#fbf4a1;"/>
<stop offset="100%" style="stop-color:#8f5e25;"/>
</linearGradient>
<path style="stroke: none; stroke-width: 1; stroke-dasharray: none; stroke-linecap: butt; stroke-dashoffset: 0; stroke-linejoin: miter; stroke-miterlimit: 4; fill: url(#SVGID_4018_4023); fill-rule: nonzero; opacity: 1;"  transform=" translate(-28.34999999999999, -31.35)" d="M 30.4 29 c 0 -0.4 0.1 -1 0.5 -1.4 c 0.5 -0.5 1.1 -0.5 1.8 -1 c 0.3 -0.2 0.7 -0.7 1 -1.4 c -0.5 0.1 -1.2 0.4 -2.1 0.6 c -2.6 0.8 -3.9 1.3 -4.8 2.1 c -0.5 0.5 -1.3 1.3 -1.8 2.9 c 1.2 -0.7 2.4 -1.4 3.6 -2 c 0 0.3 -0.1 0.6 -0.2 0.9 c -0.3 0.8 -0.8 1.3 -1.1 1.5 c -2.5 2.1 -4.9 4.2 -7.4 6.3 c 2.7 -1.5 5.4 -3 8.2 -4.5 c 1.9 0.6 3.1 0.3 4 0 c 0.7 -0.3 1.1 -0.6 2.8 -1.7 c 0.8 -0.5 1.5 -0.8 1.9 -1.1 c -0.4 -0.4 -1.4 -1.2 -3.1 -1.5 C 32.2 28.3 30.9 28.8 30.4 29 z" stroke-linecap="round" />
</g>
		<g transform="matrix(1 0 0 1 0.011569742016710904 -0.1015217522008598)"  >
<linearGradient id="SVGID_4019_4024" gradientUnits="userSpaceOnUse" gradientTransform="matrix(1 0 0 1 4.9887573964497065 4.7319930903138925)"  x1="0" y1="0" x2="100" y2="100">
<stop offset="0%" style="stop-color:#8f5e25;"/>
<stop offset="50%" style="stop-color:#fbf4a1;"/>
<stop offset="100%" style="stop-color:#8f5e25;"/>
</linearGradient>
<path style="stroke: none; stroke-width: 1; stroke-dasharray: none; stroke-linecap: butt; stroke-dashoffset: 0; stroke-linejoin: miter; stroke-miterlimit: 4; fill: url(#SVGID_4019_4024); fill-rule: nonzero; opacity: 1;"  transform=" translate(-50.01156974201671, -49.89847824779914)" d="M 95 47.3 c 0.1 -2.2 0.3 -9.3 -4.6 -16.3 c -4.9 -7.1 -11.7 -9.5 -13.8 -10.1 c 1.1 -0.2 2.6 -0.3 4.4 0 c 1.9 0.3 3.4 0.9 4.4 1.4 c -1.6 -2 -4.5 -5.1 -9 -7.6 c -4.3 -2.3 -8.2 -3.1 -10.6 -3.5 c 0.7 -0.2 1.5 -0.4 2.4 -0.6 c 1.2 -0.2 2.3 -0.3 3.3 -0.3 C 66.7 7.8 60 5.4 51.7 4.8 c -1.8 -0.1 -11.1 -0.6 -20.3 3.8 c -3.9 1.8 -5.6 3.5 -6 5.6 c -0.4 2.2 0.9 4.3 1.6 5.2 c -2.6 1.5 -5.2 3 -7.8 4.5 c 0 1.7 0 3.5 0 5.2 c -4.6 3.5 -9.1 7.1 -13.7 10.6 c -0.1 0.1 -0.4 0.5 -0.5 1 c -0.1 0.8 0.5 1.4 0.5 1.5 c 0.3 0.5 0.7 0.9 1 1.4 c 0 1.6 0.1 3.2 0.1 4.8 c 0 0.2 0 0.5 0.1 0.8 c 0.3 1.4 1.4 2.3 2.2 2.8 c -0.1 0.8 -0.2 1.9 -0.3 3.2 c -0.1 1.4 -0.1 2.7 0 3.6 c 0.1 0.7 0.7 3 4.5 5.1 c 0.2 -0.9 0.9 -2.6 2.5 -3.7 c 0.8 -0.6 1.6 -0.8 2.9 -1 c 1.6 -0.3 4 -0.6 6.9 -0.6 c -3.4 2.3 -7.5 5.7 -10 10.5 c -0.6 1.2 -1 2.3 -1.2 3.5 c -0.6 4.4 2.3 8 3.4 9.2 c -0.2 -0.6 -0.7 -2.7 0.3 -5 c 0.6 -1.4 1.6 -2.3 2.2 -2.7 c 0.4 2.3 1.6 7.1 5.4 11.6 c 4.9 5.8 11 7.5 13.2 8 c -1.3 -1.2 -4.3 -4.4 -5.6 -9.6 c -1.4 -5.7 0.2 -10.4 0.8 -12 c 0.1 1.5 0.3 3.9 1.5 6.5 c 1.4 3.1 3.6 5.3 5 6.6 c 3.2 3.1 5.2 3.7 5.3 5.6 c 0.1 1.5 -1 2.8 -1.9 3.7 c 1.6 0.4 7.3 1.6 12.8 -1.5 c 6.2 -3.5 9.7 -11.2 8.5 -19.4 c 0.8 1.4 2.1 4.5 2 8.5 c -0.2 5.9 -3.4 9.8 -4.4 10.9 c 4.1 -1.1 11.3 -3.8 16.9 -10.3 c 1.5 -1.8 3.7 -4.4 5 -8.5 c 2.3 -7.4 -0.3 -14 -1.3 -16.3 c 1.1 1.2 2.6 3.2 3.8 5.9 c 1.5 3.7 1.5 6.9 1.4 8.8 c 1 -1.5 6.6 -10.5 3.6 -21.8 c -2.4 -8.9 -8.6 -13.7 -10.5 -15.1 c 1.6 0.3 4.4 1.1 7.2 3.2 C 92.8 42 94.4 45.7 95 47.3 z M 10.5 50.5 c -0.7 -0.8 -1 -1.6 -1.1 -2.1 c -0.2 -0.8 -0.6 -1.9 0 -2.6 c 0.5 -0.5 1.2 -0.6 1.5 -0.5 c 0.1 0.9 0.3 1.8 0.5 2.7 c 0.2 0.9 0.4 1.7 0.5 2.5 C 11.5 50.5 11 50.5 10.5 50.5 z M 19.9 55.4 c -0.4 0.7 -1.1 0.9 -3.3 1.4 c -2.1 0.5 -2.7 0.6 -3.4 1.1 c -0.6 0.5 -0.9 1 -1.1 1.4 c -0.3 -0.2 -0.6 -0.6 -0.9 -1.1 c -0.4 -0.8 -0.3 -1.5 -0.1 -2.4 c 0.1 -0.7 0.3 -1.7 0.9 -2.8 c 6.7 -0.1 8.1 0.8 8.2 1.4 C 20.2 54.8 20 55.2 19.9 55.4 z M 79.1 32.1 c -2.6 0.3 -4.8 0.9 -6.3 1.5 c 4.6 2.9 7.7 5.9 9.8 8 c 1.9 2.1 2.8 3.3 3 3.7 c 2.5 3.8 3.2 7.6 3.5 10 c -1.9 -1 -4.3 -2.1 -7.1 -3 c -3.2 -1 -6 -1.6 -8.4 -1.8 c 1.8 2.2 4 5.5 5.2 9.9 c 0.9 3.2 2 7.1 0.3 11.4 c -1.3 3.4 -3.8 5.5 -5.2 6.5 c -0.1 -1.3 -0.7 -4.9 -3.7 -8.2 c -3 -3.3 -6.5 -4.2 -7.8 -4.5 c -0.8 4.5 -1.9 8.1 -2.9 10.6 c -1.7 4.4 -3.2 6.3 -4.3 7.4 c -1.2 1.3 -2.4 2.2 -3.3 2.7 c -0.5 -0.7 -1.3 -1.7 -2.4 -2.8 c -1.6 -1.6 -3.1 -2.4 -3.7 -2.8 c -2.7 -1.8 -5.3 -5 -6.3 -7.8 c -1.9 -5.2 0.9 -10.4 1.7 -11.9 c -2.1 1 -7.1 3.8 -10.4 9.8 c -2.1 3.8 -2.7 7.4 -2.9 9.6 c -0.9 -1.4 -2.6 -4.2 -2.8 -8.1 c -0.2 -3.4 0.9 -5.8 1.7 -7.7 c 0.8 -1.8 2 -4.1 9 -11.5 c 4.7 -5 5.7 -5.6 7.9 -8.6 c 2.1 -2.9 3.5 -5.5 4.4 -7.3 c -2.4 3.2 -7.2 8.9 -11.7 9 c -0.5 0 -2.2 0.1 -2.5 -0.6 c -0.2 -0.7 1.2 -1.7 2.6 -2.8 c 1.4 -1 2.6 -1.8 3.5 -2.3 c -0.8 0.3 -2 0.7 -3.5 1 c -2.2 0.4 -2.6 0 -4.4 0.5 c -1.6 0.4 -1.8 0.9 -3.9 1.6 c -1.1 0.4 -2.1 0.6 -2.8 0.7 c 0.5 0.1 1.8 0.5 2.8 1.7 c 0.1 0.2 1.7 2.2 0.9 4 c -0.9 1.9 -3.9 2 -4.6 2 c -1.7 0 -2.4 -0.5 -4.3 -1 c -1.4 -0.3 -3.4 -0.6 -5.9 -0.4 c -0.3 -0.6 -0.6 -1.4 -0.8 -2.3 c -0.2 -1.1 -0.3 -2.1 -0.2 -2.9 c 2.4 0.2 4.2 -0.3 4.5 -1.2 c 0.1 -0.2 0.1 -0.5 -0.1 -0.8 c -1 -0.6 -2.4 -1.1 -4 -1.6 c -2.4 -0.7 -4.5 -0.7 -6 -0.6 c 4.7 -3.6 9.4 -7.3 14.1 -10.9 c 0 -1.7 0 -3.4 0 -5.1 c 3 -1.8 6 -3.7 9 -5.5 c -0.2 -0.4 -1.2 -2.8 -0.2 -5.3 c 0.9 -2.3 3.2 -3.9 5.8 -4.2 c -0.4 0.3 -2.3 1.7 -2.7 4.3 c -0.2 1.6 0.3 3 0.5 3.5 c 1.6 -1.9 5 -5.3 10.4 -7.5 C 50.8 8 56.1 8.4 58.6 8.7 c -2.2 0.1 -5.4 0.6 -9 2 c -2.8 1.2 -5 2.6 -6.5 3.8 c 4.1 -0.8 9.9 -1.4 16.7 -0.5 c 5 0.6 9.2 1.9 12.4 3.1 c -0.9 0.2 -3.1 0.7 -5.1 2.4 c -2.1 1.8 -2.9 4 -3.2 4.9 c 2.7 -0.2 8 -0.2 13.8 2.5 c 3.6 1.7 6.1 3.8 7.7 5.4 C 83.8 32 81.6 31.9 79.1 32.1 z" stroke-linecap="round" />
</g>
</g>
</g>
<g transform="matrix(0.73 0 0 0.7299999999999999 269.04000354372346 251.07324623293195)"  >
<path style="stroke: none; stroke-width: 1; stroke-dasharray: none; stroke-linecap: butt; stroke-dashoffset: 0; stroke-linejoin: miter; stroke-miterlimit: 4; fill: rgb(0,0,0); fill-rule: nonzero; opacity: 1;"  transform=" translate(-249.95000000000002, -250)" d="M 76.9 288.8 h 346.2 c 21.4 0 38.8 -17.4 38.8 -38.8 v 0 c 0 -21.4 -17.4 -38.8 -38.8 -38.8 H 76.9 C 55.4 211.2 38 228.6 38 250 v 0 C 38 271.4 55.4 288.8 76.9 288.8 z" stroke-linecap="round" />
</g>
<g transform="matrix(1 0 0 1 288.1 253.24982126826995)" style=""  ><path fill="url(#CUSTOM_SVGID_undefined)" opacity="1" d="M-152.70-8.38L-144.44 1.75L-144.44-8.38L-140.20-8.38L-140.20 7.40L-144.44 7.40L-152.70-2.73L-152.70 7.40L-156.94 7.40L-156.94-8.38L-152.70-8.38Z"/>
    <linearGradient id="CUSTOM_SVGID_undefined" gradientUnits="userSpaceOnUse" gradientTransform="matrix(1 0 0 1 -158.59 -13.303321268269967)"  x1="0" y1="0" x2="317.18" y2="26.606642536539933">
      <stop  offset="0" style="stop-color:#8f5e25;stop-opacity:undefined"/><stop  offset="0.5" style="stop-color:#fbf4a1;stop-opacity:undefined"/><stop  offset="1" style="stop-color:#8f5e25;stop-opacity:undefined"/>
    </linearGradient>
  <path fill="url(#CUSTOM_SVGID_undefined)" opacity="1" d="M-124.33 7.40L-128.57 7.40L-128.57-4.61L-134.69-4.61L-134.69-8.38L-118.19-8.38L-118.19-4.61L-124.33-4.61L-124.33 7.40Z"/>
    <linearGradient id="CUSTOM_SVGID_undefined" gradientUnits="userSpaceOnUse" gradientTransform="matrix(1 0 0 1 -158.59 -13.303321268269967)"  x1="0" y1="0" x2="317.18" y2="26.606642536539933">
      <stop  offset="0" style="stop-color:#8f5e25;stop-opacity:undefined"/><stop  offset="0.5" style="stop-color:#fbf4a1;stop-opacity:undefined"/><stop  offset="1" style="stop-color:#8f5e25;stop-opacity:undefined"/>
    </linearGradient>
  <path fill="url(#CUSTOM_SVGID_undefined)" opacity="1" d="M-97.58-8.38L-97.58-4.61L-108.44-4.61L-108.44-2.26L-99.94-2.26L-99.94 1.51L-108.44 1.51L-108.44 3.63L-97.58 3.63L-97.58 7.40L-112.68 7.40L-112.68-8.38L-97.58-8.38Z"/>
    <linearGradient id="CUSTOM_SVGID_undefined" gradientUnits="userSpaceOnUse" gradientTransform="matrix(1 0 0 1 -158.59 -13.303321268269967)"  x1="0" y1="0" x2="317.18" y2="26.606642536539933">
      <stop  offset="0" style="stop-color:#8f5e25;stop-opacity:undefined"/><stop  offset="0.5" style="stop-color:#fbf4a1;stop-opacity:undefined"/><stop  offset="1" style="stop-color:#8f5e25;stop-opacity:undefined"/>
    </linearGradient>
  <path fill="url(#CUSTOM_SVGID_undefined)" opacity="1" d=""/>
    <linearGradient id="CUSTOM_SVGID_undefined" gradientUnits="userSpaceOnUse" gradientTransform="matrix(1 0 0 1 -158.59 -13.303321268269967)"  x1="0" y1="0" x2="317.18" y2="26.606642536539933">
      <stop  offset="0" style="stop-color:#8f5e25;stop-opacity:undefined"/><stop  offset="0.5" style="stop-color:#fbf4a1;stop-opacity:undefined"/><stop  offset="1" style="stop-color:#8f5e25;stop-opacity:undefined"/>
    </linearGradient>
  <path fill="url(#CUSTOM_SVGID_undefined)" opacity="1" d="M-66.57-3.20L-66.57-2.26Q-66.57-1.08-66.87-0.06Q-67.16 0.97-67.87 1.73Q-68.57 2.50-69.79 2.95Q-71.00 3.39-72.84 3.39L-72.84 3.39L-73.50 3.39Q-74.77 3.39-75.98 3.37Q-77.19 3.35-78.35 3.16L-78.35 3.16L-78.35 7.40L-82.58 7.40L-82.58-8.38Q-80.56-8.61-78.33-8.73Q-76.11-8.85-73.97-8.85L-73.97-8.85L-73.31-8.85Q-71.33-8.85-70.03-8.40Q-68.74-7.96-67.96-7.19Q-67.19-6.42-66.88-5.39Q-66.57-4.35-66.57-3.20L-66.57-3.20ZM-74.16-0.37L-74.16-0.37Q-72.91-0.37-72.22-0.55Q-71.54-0.73-71.22-1.04Q-70.91-1.36-70.86-1.79Q-70.81-2.21-70.81-2.73L-70.81-2.73Q-70.81-3.25-70.86-3.68Q-70.91-4.12-71.21-4.42Q-71.52-4.73-72.15-4.91Q-72.79-5.08-73.99-5.08L-73.99-5.08Q-74.74-5.08-75.96-5.04Q-77.17-4.99-78.35-4.87L-78.35-4.87L-78.35-0.59Q-77.24-0.44-76.25-0.41Q-75.26-0.37-74.16-0.37Z"/>
    <linearGradient id="CUSTOM_SVGID_undefined" gradientUnits="userSpaceOnUse" gradientTransform="matrix(1 0 0 1 -158.59 -13.303321268269967)"  x1="0" y1="0" x2="317.18" y2="26.606642536539933">
      <stop  offset="0" style="stop-color:#8f5e25;stop-opacity:undefined"/><stop  offset="0.5" style="stop-color:#fbf4a1;stop-opacity:undefined"/><stop  offset="1" style="stop-color:#8f5e25;stop-opacity:undefined"/>
    </linearGradient>
  <path fill="url(#CUSTOM_SVGID_undefined)" opacity="1" d="M-59.18 7.40L-62.99 7.40L-62.99 6.45L-55.98-8.38L-51.74-8.38L-44.72 6.45L-44.72 7.40L-48.54 7.40L-49.90 4.34L-57.84 4.34L-59.18 7.40ZM-56.26 0.80L-51.46 0.80L-53.86-4.59L-56.26 0.80Z"/>
    <linearGradient id="CUSTOM_SVGID_undefined" gradientUnits="userSpaceOnUse" gradientTransform="matrix(1 0 0 1 -158.59 -13.303321268269967)"  x1="0" y1="0" x2="317.18" y2="26.606642536539933">
      <stop  offset="0" style="stop-color:#8f5e25;stop-opacity:undefined"/><stop  offset="0.5" style="stop-color:#fbf4a1;stop-opacity:undefined"/><stop  offset="1" style="stop-color:#8f5e25;stop-opacity:undefined"/>
    </linearGradient>
  <path fill="url(#CUSTOM_SVGID_undefined)" opacity="1" d="M-22.97 7.40L-27.06 7.40L-30.22 2.45Q-31.49 2.45-32.67 2.43Q-33.84 2.40-34.98 2.22L-34.98 2.22L-34.98 7.40L-39.21 7.40L-39.21-8.38Q-37.19-8.61-34.96-8.73Q-32.74-8.85-30.60-8.85L-30.60-8.85L-29.94-8.85Q-27.96-8.85-26.66-8.44Q-25.37-8.03-24.59-7.32Q-23.81-6.61-23.51-5.67Q-23.20-4.73-23.20-3.67L-23.20-3.67L-23.20-2.73Q-23.20-1.24-23.79-0.03Q-24.38 1.18-25.89 1.84L-25.89 1.84L-22.97 6.45L-22.97 7.40ZM-30.55-5.08L-30.55-5.08Q-31.37-5.08-32.59-5.04Q-33.80-4.99-34.98-4.87L-34.98-4.87L-34.98-1.53Q-33.87-1.39-32.88-1.35Q-31.89-1.32-31.28-1.32L-31.28-1.32Q-29.87-1.32-29.09-1.44Q-28.31-1.57-27.95-1.83Q-27.58-2.09-27.51-2.49Q-27.44-2.89-27.44-3.46L-27.44-3.46Q-27.44-3.76-27.49-4.06Q-27.53-4.35-27.83-4.59Q-28.12-4.82-28.76-4.95Q-29.39-5.08-30.55-5.08Z"/>
    <linearGradient id="CUSTOM_SVGID_undefined" gradientUnits="userSpaceOnUse" gradientTransform="matrix(1 0 0 1 -158.59 -13.303321268269967)"  x1="0" y1="0" x2="317.18" y2="26.606642536539933">
      <stop  offset="0" style="stop-color:#8f5e25;stop-opacity:undefined"/><stop  offset="0.5" style="stop-color:#fbf4a1;stop-opacity:undefined"/><stop  offset="1" style="stop-color:#8f5e25;stop-opacity:undefined"/>
    </linearGradient>
  <path fill="url(#CUSTOM_SVGID_undefined)" opacity="1" d="M-9.45 4.10L-9.45 4.10Q-8.18 4.10-7.46 3.97Q-6.74 3.84-6.38 3.64Q-6.01 3.44-5.92 3.19Q-5.83 2.95-5.83 2.73L-5.83 2.73Q-5.83 2.31-6.03 2.06Q-6.23 1.82-6.66 1.68Q-7.10 1.53-7.82 1.47Q-8.53 1.42-9.55 1.39L-9.55 1.39Q-10.13 1.37-10.93 1.32Q-11.74 1.27-12.58 1.12Q-13.43 0.97-14.25 0.67Q-15.08 0.38-15.73-0.15Q-16.37-0.68-16.77-1.48Q-17.17-2.28-17.17-3.43L-17.17-3.43L-17.17-3.74Q-17.17-4.75-16.81-5.68Q-16.44-6.61-15.56-7.32Q-14.68-8.03-13.18-8.44Q-11.69-8.85-9.45-8.85L-9.45-8.85L-8.60-8.85Q-6.98-8.85-5.45-8.65Q-3.92-8.45-2.46-8.07L-2.46-8.07L-2.46-4.19Q-4.18-4.59-5.86-4.82Q-7.54-5.06-9.29-5.06L-9.29-5.06Q-10.56-5.06-11.29-4.93Q-12.02-4.80-12.38-4.60Q-12.75-4.40-12.84-4.18Q-12.94-3.95-12.94-3.74L-12.94-3.74Q-12.94-3.32-12.74-3.06Q-12.54-2.80-12.09-2.66Q-11.64-2.52-10.93-2.46Q-10.23-2.40-9.24-2.37L-9.24-2.37Q-8.67-2.35-7.90-2.32Q-7.12-2.28-6.26-2.13Q-5.40-1.97-4.57-1.67Q-3.73-1.36-3.07-0.83Q-2.41-0.30-2.00 0.51Q-1.59 1.32-1.59 2.48L-1.59 2.48L-1.59 2.78Q-1.59 3.79-1.95 4.71Q-2.32 5.63-3.21 6.34Q-4.11 7.04-5.59 7.46Q-7.07 7.87-9.33 7.87L-9.33 7.87L-10.18 7.87Q-12.04 7.87-13.80 7.67Q-15.55 7.47-17.25 7.11L-17.25 7.11L-17.25 3.16Q-15.34 3.58-13.30 3.84Q-11.26 4.10-9.45 4.10Z"/>
    <linearGradient id="CUSTOM_SVGID_undefined" gradientUnits="userSpaceOnUse" gradientTransform="matrix(1 0 0 1 -158.59 -13.303321268269967)"  x1="0" y1="0" x2="317.18" y2="26.606642536539933">
      <stop  offset="0" style="stop-color:#8f5e25;stop-opacity:undefined"/><stop  offset="0.5" style="stop-color:#fbf4a1;stop-opacity:undefined"/><stop  offset="1" style="stop-color:#8f5e25;stop-opacity:undefined"/>
    </linearGradient>
  <path fill="url(#CUSTOM_SVGID_undefined)" opacity="1" d=""/>
    <linearGradient id="CUSTOM_SVGID_undefined" gradientUnits="userSpaceOnUse" gradientTransform="matrix(1 0 0 1 -158.59 -13.303321268269967)"  x1="0" y1="0" x2="317.18" y2="26.606642536539933">
      <stop  offset="0" style="stop-color:#8f5e25;stop-opacity:undefined"/><stop  offset="0.5" style="stop-color:#fbf4a1;stop-opacity:undefined"/><stop  offset="1" style="stop-color:#8f5e25;stop-opacity:undefined"/>
    </linearGradient>
  <path fill="url(#CUSTOM_SVGID_undefined)" opacity="1" d="M24.50 4.17L22.34 4.17L17.91-2.02L17.91 7.40L13.67 7.40L13.67-8.38L17.91-8.38L23.42-0.30L28.93-8.38L33.17-8.38L33.17 7.40L28.93 7.40L28.93-2.02L24.50 4.17Z"/>
    <linearGradient id="CUSTOM_SVGID_undefined" gradientUnits="userSpaceOnUse" gradientTransform="matrix(1 0 0 1 -158.59 -13.303321268269967)"  x1="0" y1="0" x2="317.18" y2="26.606642536539933">
      <stop  offset="0" style="stop-color:#8f5e25;stop-opacity:undefined"/><stop  offset="0.5" style="stop-color:#fbf4a1;stop-opacity:undefined"/><stop  offset="1" style="stop-color:#8f5e25;stop-opacity:undefined"/>
    </linearGradient>
  <path fill="url(#CUSTOM_SVGID_undefined)" opacity="1" d="M54.59-8.38L54.59-4.61L43.74-4.61L43.74-2.26L52.24-2.26L52.24 1.51L43.74 1.51L43.74 3.63L54.59 3.63L54.59 7.40L39.50 7.40L39.50-8.38L54.59-8.38Z"/>
    <linearGradient id="CUSTOM_SVGID_undefined" gradientUnits="userSpaceOnUse" gradientTransform="matrix(1 0 0 1 -158.59 -13.303321268269967)"  x1="0" y1="0" x2="317.18" y2="26.606642536539933">
      <stop  offset="0" style="stop-color:#8f5e25;stop-opacity:undefined"/><stop  offset="0.5" style="stop-color:#fbf4a1;stop-opacity:undefined"/><stop  offset="1" style="stop-color:#8f5e25;stop-opacity:undefined"/>
    </linearGradient>
  <path fill="url(#CUSTOM_SVGID_undefined)" opacity="1" d="M70.25 7.40L66.01 7.40L66.01-4.61L59.89-4.61L59.89-8.38L76.40-8.38L76.40-4.61L70.25-4.61L70.25 7.40Z"/>
    <linearGradient id="CUSTOM_SVGID_undefined" gradientUnits="userSpaceOnUse" gradientTransform="matrix(1 0 0 1 -158.59 -13.303321268269967)"  x1="0" y1="0" x2="317.18" y2="26.606642536539933">
      <stop  offset="0" style="stop-color:#8f5e25;stop-opacity:undefined"/><stop  offset="0.5" style="stop-color:#fbf4a1;stop-opacity:undefined"/><stop  offset="1" style="stop-color:#8f5e25;stop-opacity:undefined"/>
    </linearGradient>
  <path fill="url(#CUSTOM_SVGID_undefined)" opacity="1" d="M82.38 7.40L78.56 7.40L78.56 6.45L85.58-8.38L89.82-8.38L96.83 6.45L96.83 7.40L93.02 7.40L91.65 4.34L83.72 4.34L82.38 7.40ZM85.30 0.80L90.10 0.80L87.70-4.59L85.30 0.80Z"/>
    <linearGradient id="CUSTOM_SVGID_undefined" gradientUnits="userSpaceOnUse" gradientTransform="matrix(1 0 0 1 -158.59 -13.303321268269967)"  x1="0" y1="0" x2="317.18" y2="26.606642536539933">
      <stop  offset="0" style="stop-color:#8f5e25;stop-opacity:undefined"/><stop  offset="0.5" style="stop-color:#fbf4a1;stop-opacity:undefined"/><stop  offset="1" style="stop-color:#8f5e25;stop-opacity:undefined"/>
    </linearGradient>
  <path fill="url(#CUSTOM_SVGID_undefined)" opacity="1" d="M117.44 7.40L102.34 7.40L102.34-8.38L106.58-8.38L106.58 3.63L117.44 3.63L117.44 7.40Z"/>
    <linearGradient id="CUSTOM_SVGID_undefined" gradientUnits="userSpaceOnUse" gradientTransform="matrix(1 0 0 1 -158.59 -13.303321268269967)"  x1="0" y1="0" x2="317.18" y2="26.606642536539933">
      <stop  offset="0" style="stop-color:#8f5e25;stop-opacity:undefined"/><stop  offset="0.5" style="stop-color:#fbf4a1;stop-opacity:undefined"/><stop  offset="1" style="stop-color:#8f5e25;stop-opacity:undefined"/>
    </linearGradient>
  </g></svg>
